<svg xmlns="http://www.w3.org/2000/svg" viewBox="0 0 166 64" width="332" height="128" role="img" aria-label="tnix">
  <title>tnix</title>
  <defs><linearGradient id="td" x1="8" y1="6" x2="56" y2="58" gradientUnits="userSpaceOnUse"><stop offset="0" stop-color="#7EBAE4"/><stop offset="0.5" stop-color="#3B63E0"/><stop offset="1" stop-color="#2449B8"/></linearGradient></defs><path d="M58 32 45 54.5H19L6 32 19 9.5h26z" fill="url(#td)" stroke="url(#td)" stroke-width="6" stroke-linejoin="round"/><path d="M26.5 16.5v22.5q0 7.5 7.5 7.5h2.5M19.5 26.5h15" fill="none" stroke="#FFFFFF" stroke-width="6.5" stroke-linecap="round" stroke-linejoin="round"/><circle cx="45" cy="30.5" r="3.75" fill="#5FE0BC"/><circle cx="45" cy="43" r="3.75" fill="#5FE0BC"/><g fill="none" stroke="#F4F7FC" stroke-width="6.5" stroke-linecap="round" stroke-linejoin="round"><path d="M84 15.5v23.5q0 7.5 7.5 7.5h2M77.5 26.5h15"/><path d="M103 26.5v20M103 35q0-8.5 8.5-8.5t8.5 8.5v11.5"/><path d="M131 28v18.5"/><path d="M142.5 27l17 19.5M159.5 27l-17 19.5"/></g><circle cx="131" cy="17" r="3.9" fill="#F4F7FC"/>
</svg>
